<svg id="Capa_1" data-name="Capa 1" xmlns="http://www.w3.org/2000/svg" viewBox="0 0 142.45 142.45"><defs><style>.cls-1,.cls-6,.cls-7{fill:none;}.cls-1,.cls-3,.cls-4,.cls-5,.cls-6,.cls-7{stroke:#010101;}.cls-1,.cls-3,.cls-4,.cls-6,.cls-7{stroke-linecap:round;stroke-linejoin:round;}.cls-1{stroke-width:1.42px;}.cls-2,.cls-3,.cls-4,.cls-5{fill:#010101;}.cls-3{stroke-width:4.54px;}.cls-4{stroke-width:5.67px;}.cls-5{fill-opacity:0;stroke-miterlimit:2.88;}.cls-5,.cls-6{stroke-width:0.72px;}.cls-7{stroke-width:0.43px;}</style></defs><polyline id="gge609" class="cls-1" points="110.41 12.35 101.05 2.99 76.57 2.99 57.49 22.07 57.49 68.87 83.77 95.15"/><polyline id="gge781" class="cls-1" points="83.77 123.95 87.73 123.95 99.25 135.47 112.93 135.47 120.49 127.91"/><polyline id="gge778" class="cls-1" points="113.29 127.91 108.63 127.91 102.13 121.41"/><polyline id="gge777" class="cls-1" points="120.49 127.91 120.49 111.35 132.37 99.47"/><polyline id="gge776" class="cls-1" points="109.33 88.03 119.33 88.03 122.29 85.07 132.37 85.07"/><polyline id="gge775" class="cls-1" points="132.37 92.27 102.47 92.27 102.13 91.93"/><polyline id="gge774" class="cls-1" points="102.13 91.93 99.27 91.93 95.29 87.95"/><polyline id="gge629" class="cls-1" points="83.77 23.15 92.05 31.43 92.05 63.11 95.29 66.35"/><polyline id="gge621" class="cls-1" points="83.77 23.15 83.77 19.55 90.97 12.35 96.73 12.35"/><polyline id="gge587" class="cls-1" points="109.33 61.95 120.13 51.15 120.13 45.11"/><polyline id="gge478" class="cls-1" points="95.29 87.95 101.41 81.83 101.41 56.63 120.13 37.91 120.13 30.71"/><line id="gge479" class="cls-1" x1="83.77" y1="87.95" x2="95.29" y2="87.95"/><g id="gge117"><circle class="cls-2" cx="83.77" cy="95.15" r="2.16"/><circle class="cls-2" cx="83.77" cy="95.15" r="1.3"/></g><g id="gge122"><circle class="cls-2" cx="18.97" cy="95.15" r="2.16"/><circle class="cls-2" cx="18.97" cy="95.15" r="1.3"/></g><g id="gge127"><circle class="cls-2" cx="83.77" cy="102.35" r="2.16"/><circle class="cls-2" cx="83.77" cy="102.35" r="1.3"/></g><g id="gge132"><circle class="cls-2" cx="83.77" cy="109.55" r="2.16"/><circle class="cls-2" cx="83.77" cy="109.55" r="1.3"/></g><g id="gge137"><circle class="cls-2" cx="18.97" cy="109.55" r="2.16"/><circle class="cls-2" cx="18.97" cy="109.55" r="1.3"/></g><g id="gge142"><circle class="cls-2" cx="18.97" cy="102.35" r="2.16"/><circle class="cls-2" cx="18.97" cy="102.35" r="1.3"/></g><g id="gge147"><circle class="cls-2" cx="83.77" cy="116.75" r="2.16"/><circle class="cls-2" cx="83.77" cy="116.75" r="1.3"/></g><g id="gge152"><circle class="cls-2" cx="18.97" cy="116.75" r="2.16"/><circle class="cls-2" cx="18.97" cy="116.75" r="1.3"/></g><g id="gge157"><circle class="cls-2" cx="83.77" cy="123.95" r="2.16"/><circle class="cls-2" cx="83.77" cy="123.95" r="1.3"/></g><g id="gge162"><circle class="cls-2" cx="18.97" cy="123.95" r="2.16"/><circle class="cls-2" cx="18.97" cy="123.95" r="1.3"/></g><g id="gge167"><circle class="cls-2" cx="83.77" cy="87.95" r="2.16"/><circle class="cls-2" cx="83.77" cy="87.95" r="1.3"/></g><g id="gge172"><circle class="cls-2" cx="18.97" cy="87.95" r="2.16"/><circle class="cls-2" cx="18.97" cy="87.95" r="1.3"/></g><g id="gge177"><circle class="cls-2" cx="83.77" cy="80.75" r="2.16"/><circle class="cls-2" cx="83.77" cy="80.75" r="1.3"/></g><g id="gge182"><circle class="cls-2" cx="18.97" cy="80.75" r="2.16"/><circle class="cls-2" cx="18.97" cy="80.75" r="1.3"/></g><g id="gge187"><circle class="cls-2" cx="18.97" cy="73.55" r="2.16"/><circle class="cls-2" cx="18.97" cy="73.55" r="1.3"/></g><g id="gge192"><circle class="cls-2" cx="83.77" cy="73.55" r="2.16"/><circle class="cls-2" cx="83.77" cy="73.55" r="1.3"/></g><g id="gge197"><circle class="cls-2" cx="83.77" cy="66.35" r="2.16"/><circle class="cls-2" cx="83.77" cy="66.35" r="1.3"/></g><g id="gge202"><circle class="cls-2" cx="83.77" cy="59.15" r="2.16"/><circle class="cls-2" cx="83.77" cy="59.15" r="1.3"/></g><g id="gge207"><circle class="cls-2" cx="83.77" cy="51.95" r="2.16"/><circle class="cls-2" cx="83.77" cy="51.95" r="1.3"/></g><g id="gge212"><circle class="cls-2" cx="83.77" cy="44.75" r="2.16"/><circle class="cls-2" cx="83.77" cy="44.75" r="1.3"/></g><g id="gge217"><circle class="cls-2" cx="83.77" cy="37.55" r="2.16"/><circle class="cls-2" cx="83.77" cy="37.55" r="1.3"/></g><g id="gge222"><circle class="cls-2" cx="83.77" cy="30.35" r="2.16"/><circle class="cls-2" cx="83.77" cy="30.35" r="1.3"/></g><g id="gge227"><circle class="cls-2" cx="83.77" cy="23.15" r="2.16"/><circle class="cls-2" cx="83.77" cy="23.15" r="1.3"/></g><g id="gge232"><circle class="cls-2" cx="18.97" cy="23.15" r="2.16"/><circle class="cls-2" cx="18.97" cy="23.15" r="1.3"/></g><g id="gge237"><circle class="cls-2" cx="18.97" cy="30.35" r="2.16"/><circle class="cls-2" cx="18.97" cy="30.35" r="1.3"/></g><g id="gge242"><circle class="cls-2" cx="18.97" cy="37.55" r="2.16"/><circle class="cls-2" cx="18.97" cy="37.55" r="1.3"/></g><g id="gge247"><circle class="cls-2" cx="18.97" cy="44.75" r="2.16"/><circle class="cls-2" cx="18.97" cy="44.75" r="1.3"/></g><g id="gge252"><circle class="cls-2" cx="18.97" cy="51.95" r="2.16"/><circle class="cls-2" cx="18.97" cy="51.95" r="1.3"/></g><g id="gge257"><circle class="cls-2" cx="18.97" cy="59.15" r="2.16"/><circle class="cls-2" cx="18.97" cy="59.15" r="1.3"/></g><g id="gge262"><circle class="cls-2" cx="18.97" cy="66.35" r="2.16"/><circle class="cls-2" cx="18.97" cy="66.35" r="1.3"/></g><g id="gge274"><line class="cls-3" x1="110.41" y1="11.93" x2="110.41" y2="12.78"/><circle class="cls-2" cx="110.41" cy="12.35" r="1.3"/></g><g id="gge286"><line class="cls-3" x1="96.73" y1="11.93" x2="96.73" y2="12.78"/><circle class="cls-2" cx="96.73" cy="12.35" r="1.3"/></g><g id="gge306"><circle class="cls-2" cx="120.13" cy="45.11" r="3.12"/><circle class="cls-2" cx="120.13" cy="45.11" r="2.13"/></g><g id="gge311"><circle class="cls-2" cx="120.13" cy="30.71" r="3.12"/><circle class="cls-2" cx="120.13" cy="30.71" r="2.13"/></g><g id="gge648"><polygon class="cls-2" points="122.76 130.18 118.23 130.18 118.23 125.64 122.76 125.64 122.76 130.18"/><circle class="cls-2" cx="120.49" cy="127.91" r="1.42"/></g><g id="gge653"><circle class="cls-2" cx="113.29" cy="127.91" r="2.27"/><circle class="cls-2" cx="113.29" cy="127.91" r="1.42"/></g><g id="gge671"><circle class="cls-2" cx="102.13" cy="91.93" r="2.66"/><circle class="cls-2" cx="102.13" cy="91.93" r="1.27"/></g><g id="gge676"><circle class="cls-2" cx="102.13" cy="121.41" r="2.66"/><circle class="cls-2" cx="102.13" cy="121.41" r="1.27"/></g><g id="gge692"><circle class="cls-2" cx="109.33" cy="88.03" r="2.55"/><circle class="cls-2" cx="109.33" cy="88.03" r="1.42"/></g><g id="gge697"><circle class="cls-2" cx="109.33" cy="61.95" r="2.55"/><circle class="cls-2" cx="109.33" cy="61.95" r="1.42"/></g><g id="gge714"><circle class="cls-2" cx="95.29" cy="87.95" r="1.7"/><circle class="cls-2" cx="95.29" cy="87.95" r="0.85"/></g><g id="gge719"><circle class="cls-2" cx="95.29" cy="66.35" r="1.7"/><circle class="cls-2" cx="95.29" cy="66.35" r="0.85"/></g><g id="gge739"><line class="cls-4" x1="133.08" y1="92.27" x2="131.66" y2="92.27"/><circle class="cls-2" cx="132.37" cy="92.27" r="1.98"/></g><g id="gge744"><line class="cls-4" x1="133.08" y1="99.47" x2="131.66" y2="99.47"/><circle class="cls-2" cx="132.37" cy="99.47" r="1.98"/></g><g id="gge749"><polygon class="cls-2" points="135.92 82.23 135.92 87.91 128.83 87.91 128.83 82.23 135.92 82.23"/><circle class="cls-2" cx="132.37" cy="85.07" r="1.98"/></g><g id="gge434"><circle class="cls-5" cx="7.09" cy="135.47" r="2.88"/></g><g id="gge429"><circle class="cls-5" cx="7.09" cy="7.31" r="2.88"/></g><g id="gge414"><circle class="cls-5" cx="135.61" cy="135.47" r="2.88"/></g><g id="gge404"><circle class="cls-5" cx="135.61" cy="6.95" r="2.88"/></g><line id="gge638" class="cls-6" x1="118.59" y1="123.94" x2="120.86" y2="123.94"/><line id="gge639" class="cls-6" x1="119.77" y1="125.03" x2="119.77" y2="122.87"/><g id="gge271"><path class="cls-7" d="M111.7,7V4.87M110.26,7V4.87m0,1h1.44M109.06,7V4.87l.3.31.21.1" transform="translate(0.16 0.15)"/></g><g id="gge283"><path class="cls-7" d="M98.74,7V4.87M97.3,7V4.87m0,1h1.44M95.17,7h1.44l-1-1-.21-.31-.1-.21V5.28l.1-.2.11-.1.2-.11h.42l.2.11.1.1.11.2v.11" transform="translate(0.16 0.15)"/></g><g id="gge293"><path class="cls-7" d="M130.83,21.38V18.3m-1,0h2.06m-5.69,1.76h2.66m-3.63,1.32V18.3m-1.33,1.46-.44-.14-.14-.14-.15-.3v-.29l.15-.3.14-.15.44-.14h1.33m0,3.08h-1.33l-.44-.14-.14-.14-.15-.3v-.45l.15-.29.14-.14.44-.16h1.33m-3,1.62V18.3m-1.77,3.08h1.77m-3.63-3.08H118l-.29.14-.3.29-.14.3-.15.45v.73l.15.44.14.3.3.29.29.14h.59l.3-.14.29-.29.15-.3.15-.44v-.73l-.15-.45-.15-.3-.29-.29-.3-.14m-4.65,2.35.15.3.29.29.3.14h.59l.29-.14.29-.29.15-.3.15-.44v-.73L116,19l-.15-.3-.29-.29-.29-.14h-.59l-.3.14-.29.29-.15.3m-1,2.35V18.3m0,2.05-2.07-2.05m0,3.08,1.33-1.76" transform="translate(0.16 0.15)"/></g><g id="gge662"><path class="cls-7" d="M96.76,106.52H93.67m1.47,0v1.33l-.15.44-.14.15-.3.14h-.29l-.3-.14-.15-.15-.14-.44v-1.33m3.09,2.06-1.62-1m1.62,4.07v-2.06L95.29,111l-.44.3-.3.14h-.29l-.3-.14-.15-.15-.14-.3v-.58l.14-.3.15-.15.3-.14h.14" transform="translate(0.16 0.15)"/></g><g id="gge506"><path class="cls-7" d="M115.12,75h3.09m-3.09,0V74l.14-.45.3-.29.29-.15.44-.14H117l.44.14.3.15.29.29.15.45v1m-2.51-3-.29-.15-.15-.14-.14-.45v-.44l.14-.44.3-.29.44-.15h.29l.45.15.14.14.15.3V71l1.18-.88V71.7" transform="translate(0.16 0.15)"/></g><g id="gge318"><path class="cls-7" d="M91.72,75.2H88.63m1.47,0v1.33L90,77l-.14.15-.3.14h-.29l-.3-.14L88.77,77l-.14-.44V75.2m3.09,2.06-1.62-1M91.72,79H88.63l.44-.45.15-.29" transform="translate(0.16 0.15)"/></g><g id="gge3"><path class="cls-7" d="M139.42,74.66V71.58m-1.77,3.08h1.77m-2.74,0V71.58m-1.18,3.08,1.18-3.08m-1.18,3.08-1.18-3.08m0,3.08V71.58m-3,3.08h2.06l-1.47-1.46-.3-.44-.15-.3v-.29l.15-.3.15-.15.29-.14h.59l.3.14.14.15.15.3v.14m-2.88,1.77-.15.3-.15.14-.44.14h-.44l-.44-.14-.3-.29-.14-.44v-.3l.14-.45.3-.28.44-.15h.44l.44.15.15.14L130,71.58h-1.47m-1.42,2.65-.14.29-.45.14h-.29l-.44-.14-.3-.44-.14-.74v-.73l.14-.59.3-.3.44-.14h.15l.44.14.29.3.16.44v.15l-.16.43-.29.3-.44.15h-.15l-.44-.15-.3-.3-.14-.43m-1,1-.15-.44-.3-.3-.44-.14h-.15l-.44.14-.29.3-.15.44v.15l.15.44.29.29.44.14h.15l.44-.14.3-.29.15-.59V72.9l-.15-.73-.3-.45-.44-.14h-.29l-.44.14-.15.3" transform="translate(0.16 0.15)"/></g><polyline id="gge368" class="cls-6" points="142.09 0.36 142.09 142.09 0.36 142.09 0.36 0.36 142.09 0.36"/></svg>